<svg   version="1.0" xmlns="http://www.w3.org/2000/svg" xmlns:xlink="http://www.w3.org/1999/xlink" width="100%" height="100%" viewBox="0 0 340 340" preserveAspectRatio="xMidYMid meet" color-interpolation-filters="sRGB" style="margin: auto;"> 
<g  mask="url(#815971ae-e6ec-4e14-b42f-e744a9318f4c)"><g>


<svg xmlns="http://www.w3.org/2000/svg" viewBox="0 0 416.78745 416.43256" style="overflow: visible;" width="100%" height="100%" x="0" y="0" filtersec="colorsf7773443002" filter="url(#TKKZTXK7zTGacOmwMMT4y)"><g transform="scale(1, 1) skewX(0)"><g><path d="M415.65 162.72c-1.21-20.68-3.53-41.15-9.32-61.09-13.62-46.83-44.09-76.88-90.72-90.72-29.06-8.63-59-9.79-89-10.65-19.47-.56-39-.2-58.44.8C145.49 2.23 123 4.5 101.11 11 57.7 23.81 27.75 51 12.84 94.11c-9 26-11.62 53-12.31 80.17-.67 26.79-.92 53.62.58 80.43 1.16 20.7 3.6 41.12 9.35 61.08 10.93 38 33.73 66.06 69.8 82.8 16 7.43 33 11.3 50.41 13.89 25.8 3.84 51.76 4 80.91 3.94 12.32-.36 27.79.05 43.29-.9 20.68-1.28 41.14-3.58 61.07-9.4 43.93-12.84 73.71-40.65 88.46-84.19 8.65-25.53 11.24-52.07 11.87-78.74s.95-53.66-.62-80.47z"></path></g></g><defs><filter id="TKKZTXK7zTGacOmwMMT4y"><feColorMatrix type="matrix" values="0 0 0 0 0.58984375  0 0 0 0 0.3671875  0 0 0 0 0.1640625  0 0 0 1 0"></feColorMatrix></filter></defs></svg>
 
 
 </g></g>
 
 <mask id="815971ae-e6ec-4e14-b42f-e744a9318f4c">
 
 
 <g fill="white">
 
 <svg xmlns="http://www.w3.org/2000/svg" viewBox="0.00147 -0.00415 416.78745 416.43256" style="overflow: visible;" width="100%" height="100%" x="0" y="0" filtersec="colorsf7773443002"><g transform="scale(1, 1) skewX(0)"><g><path d="M415.65 162.72c-1.21-20.68-3.53-41.15-9.32-61.09-13.62-46.83-44.09-76.88-90.72-90.72-29.06-8.63-59-9.79-89-10.65-19.47-.56-39-.2-58.44.8C145.49 2.23 123 4.5 101.11 11 57.7 23.81 27.75 51 12.84 94.11c-9 26-11.62 53-12.31 80.17-.67 26.79-.92 53.62.58 80.43 1.16 20.7 3.6 41.12 9.35 61.08 10.93 38 33.73 66.06 69.8 82.8 16 7.43 33 11.3 50.41 13.89 25.8 3.84 51.76 4 80.91 3.94 12.32-.36 27.79.05 43.29-.9 20.68-1.28 41.14-3.58 61.07-9.4 43.93-12.84 73.71-40.65 88.46-84.19 8.65-25.53 11.24-52.07 11.87-78.74s.95-53.66-.62-80.47z"></path></g></g><defs></defs></svg></g> 
 
 
 
 <g fill="black">
 
 <svg xmlns="http://www.w3.org/2000/svg" xmlns:xlink="http://www.w3.org/1999/xlink" viewBox="-0.0021975040435791016 0 41.10818099975586 52.779998779296875" width="75%" height="76%" x="12.5%" y="12.5%" class="image-svg-letter"><path transform="translate(-3.104015625 53.28000000000001)" d="M28.58-0.50L3.67-0.50Q3.38-0.50 3.20-0.61Q3.02-0.72 3.17-1.08L3.17-1.08Q3.46-1.58 4.18-1.84Q4.90-2.09 5.76-2.20Q6.62-2.30 7.45-2.34Q8.28-2.38 8.78-2.38L8.78-2.38Q9.58-2.38 9.58-3.17L9.58-3.17L9.58-50.18Q9.58-50.90 8.86-50.98L8.86-50.98Q7.70-51.19 6.19-51.19Q4.68-51.19 3.67-51.70L3.67-51.70Q3.31-51.84 3.35-52.31Q3.38-52.78 3.82-52.78L3.82-52.78L43.42-53.28Q44.21-53.28 44.21-52.49L44.21-52.49L43.70-40.54Q43.63-39.82 43.20-39.82Q42.77-39.82 42.26-39.82L42.26-39.82Q41.11-39.82 40.39-40.68Q39.67-41.54 39.28-42.80Q38.88-44.06 38.63-45.58Q38.38-47.09 38.12-48.35Q37.87-49.61 37.51-50.47Q37.15-51.34 36.50-51.34L36.50-51.34L21.82-51.34Q21.10-51.34 21.10-50.62L21.10-50.62L21.10-3.67Q21.10-3.31 21.56-2.84Q22.03-2.38 22.39-2.38L22.39-2.38Q22.82-2.38 23.72-2.34Q24.62-2.30 25.63-2.20Q26.64-2.09 27.47-1.94Q28.30-1.80 28.66-1.58L28.66-1.58Q29.02-1.37 29.09-0.94Q29.16-0.50 28.58-0.50L28.58-0.50ZM31.68-26.42L23.47-26.42Q22.82-26.42 22.79-27.14Q22.75-27.86 23.47-27.86L23.47-27.86L30.89-27.86Q31.25-27.86 31.68-28.30Q32.11-28.73 32.18-29.09L32.18-29.09Q32.33-30.67 32.51-32.22Q32.69-33.77 33.05-35.35L33.05-35.35Q33.12-36.00 33.77-36.00L33.77-36.00Q34.27-36.00 34.88-36.04Q35.50-36.07 35.50-35.28L35.50-35.28L35.50-19.30Q35.50-18.94 35.10-18.72Q34.70-18.50 34.27-18.40Q33.84-18.29 33.44-18.40Q33.05-18.50 33.05-18.86L33.05-18.86Q33.05-19.51 32.98-20.45Q32.90-21.38 32.76-22.39Q32.62-23.40 32.47-24.30Q32.33-25.20 32.11-25.78L32.11-25.78Q32.04-25.92 31.93-26.17Q31.82-26.42 31.68-26.42L31.68-26.42Z"></path></svg>
 
 
 </g></mask>
 
 

 
 
 <defs><filter id="colors9456791223"><feColorMatrix type="matrix" values="0 0 0 0 0.99609375  0 0 0 0 0.5546875  0 0 0 0 0.03515625  0 0 0 1 0" ></feColorMatrix></filter> <filter id="colorsf7773443002"><feColorMatrix type="matrix" values="0 0 0 0 0.99609375  0 0 0 0 0.99609375  0 0 0 0 0.99609375  0 0 0 1 0" ></feColorMatrix></filter> <filter id="colorsb5401149687"><feColorMatrix type="matrix" values="0 0 0 0 0  0 0 0 0 0  0 0 0 0 0  0 0 0 1 0"></feColorMatrix></filter></defs>
 


 </svg>